# xmcd
#
# Track frame offsets: 
#        150
#        40497
#        68402
#        117835
#        158935
#        199277
#        275972
#
# Disc length: 4255 seconds
#
# Revision: 0
# Processed by: cddbd v1.5.2PL0 Copyright (c) Steve Scherf et al.
# Submitted via: ExactAudioCopy v0.99pb4
#
DISCID=67109d07
DTITLE=Johnny Winter - A History of the Blues
DYEAR=1978
DGENRE=Blues and Rock
TTITLE0=Hideaway
TTITLE1=If The River Was Whiskey
TTITLE2=Last Night
TTITLE3=Boney Moronie
TTITLE4=Walking By Myself
TTITLE5=Mississippi Blues
TTITLE6=Come On In My Kitchen
EXTD=
EXTT0=
EXTT1=
EXTT2=
EXTT3=
EXTT4=
EXTT5=
EXTT6=
PLAYORDER=
